<svg width="191" height="191" viewBox="0 0 191 191" fill="none" xmlns="http://www.w3.org/2000/svg">
<g clip-path="url(#clip0_3403_2)">
<mask id="path-1-inside-1_3403_2" fill="white">
<path d="M136.491 177.101C121.331 184.674 103.877 188.089 85.7854 186.026C81.5468 185.543 77.4101 184.774 73.392 183.742L130.85 126.438L136.491 177.101ZM184.709 114.881C180.046 136.861 167.578 155.561 150.609 168.353L141.634 87.7371L184.709 114.881ZM93.8711 142.133L57.7605 178.149C37.8464 168.874 22.1129 152.668 13.2788 132.946L93.8711 142.133ZM58.5398 123.008L7.91288 117.237C5.48756 107.192 4.75229 96.5585 5.9908 85.6952C7.27748 74.4099 10.5839 63.8454 15.5093 54.3227L58.5398 123.008ZM166.089 38.4151C179.565 54.8182 187.299 75.908 186.672 98.3888L118.06 55.1504L166.089 38.4151ZM51.4657 83.4633L24.4554 40.3507C37.6964 23.3369 56.7838 11.3353 78.3195 7.04524L51.4657 83.4633ZM94.8261 5.31521C98.6183 5.2686 102.456 5.45869 106.323 5.89954C124.741 7.99945 141.236 15.4823 154.421 26.5971L77.9892 53.2277L94.8261 5.31521Z"/>
</mask>
<path d="M136.491 177.101C121.331 184.674 103.877 188.089 85.7854 186.026C81.5468 185.543 77.4101 184.774 73.392 183.742L130.85 126.438L136.491 177.101ZM184.709 114.881C180.046 136.861 167.578 155.561 150.609 168.353L141.634 87.7371L184.709 114.881ZM93.8711 142.133L57.7605 178.149C37.8464 168.874 22.1129 152.668 13.2788 132.946L93.8711 142.133ZM58.5398 123.008L7.91288 117.237C5.48756 107.192 4.75229 96.5585 5.9908 85.6952C7.27748 74.4099 10.5839 63.8454 15.5093 54.3227L58.5398 123.008ZM166.089 38.4151C179.565 54.8182 187.299 75.908 186.672 98.3888L118.06 55.1504L166.089 38.4151ZM51.4657 83.4633L24.4554 40.3507C37.6964 23.3369 56.7838 11.3353 78.3195 7.04524L51.4657 83.4633ZM94.8261 5.31521C98.6183 5.2686 102.456 5.45869 106.323 5.89954C124.741 7.99945 141.236 15.4823 154.421 26.5971L77.9892 53.2277L94.8261 5.31521Z" fill="black"/>
<path d="M136.491 177.101L225.868 356.019L350.705 293.657L335.262 154.968L136.491 177.101ZM85.7854 186.026L63.1285 384.739L63.1296 384.739L85.7854 186.026ZM73.392 183.742L-67.8408 42.1328L-316.473 290.103L23.6403 377.455L73.392 183.742ZM130.85 126.438L329.621 104.305L283.663 -308.436L-10.3833 -15.172L130.85 126.438ZM184.709 114.881L380.355 156.388L409.288 20.0052L291.337 -54.3242L184.709 114.881ZM150.609 168.353L-48.1625 190.483L-9.31887 539.387L271.006 328.055L150.609 168.353ZM141.634 87.7371L248.262 -81.4684L-103.089 -302.879L-57.1376 109.866L141.634 87.7371ZM93.8711 142.133L235.107 283.74L529.155 -9.53845L116.525 -56.5795L93.8711 142.133ZM57.7605 178.149L-26.6837 359.448L100.027 418.467L198.996 319.756L57.7605 178.149ZM13.2788 132.946L35.9327 -65.7673L-312.674 -105.51L-169.248 214.702L13.2788 132.946ZM58.5398 123.008L35.8864 321.721L448.507 368.76L228.026 16.8277L58.5398 123.008ZM7.91288 117.237L-186.5 164.178L-153.679 300.111L-14.7406 315.95L7.91288 117.237ZM5.99081 85.6952L-192.722 63.0394L-192.722 63.0402L5.99081 85.6952ZM15.5093 54.3227L184.996 -51.858L-1.09969 -348.905L-162.135 -37.5596L15.5093 54.3227ZM166.089 38.4151L320.625 -88.5434L232.048 -196.361L100.282 -150.448L166.089 38.4151ZM186.672 98.3888L80.042 267.593L376.811 454.612L386.594 103.967L186.672 98.3888ZM118.06 55.1504L52.2523 -133.713L-339.925 2.93645L11.4296 224.355L118.06 55.1504ZM51.4657 83.4633L-118.019 189.647L102.47 541.581L240.155 149.77L51.4657 83.4633ZM24.4554 40.3507L-133.379 -82.4839L-219.323 27.9492L-145.029 146.534L24.4554 40.3507ZM78.3195 7.04524L267.008 73.3516L383.322 -257.643L39.246 -189.101L78.3195 7.04524ZM94.8261 5.31521L92.3681 -194.67L-47.4909 -192.951L-93.8625 -60.9917L94.8261 5.31521ZM106.323 5.89954L128.979 -192.813L128.979 -192.813L106.323 5.89954ZM154.421 26.5971L220.226 215.461L551.739 99.9541L283.329 -126.317L154.421 26.5971ZM77.9892 53.2277L-110.699 -13.0792L-248.387 378.737L143.794 242.092L77.9892 53.2277ZM136.491 177.101L47.1137 -1.81765C65.5304 -11.0176 86.895 -15.1429 108.441 -12.6863L85.7854 186.026L63.1296 384.739C120.86 391.321 177.132 380.365 225.868 356.019L136.491 177.101ZM85.7854 186.026L108.442 -12.6862C113.381 -12.1231 118.297 -11.2157 123.144 -9.97076L73.392 183.742L23.6403 377.455C36.5237 380.764 49.7125 383.209 63.1285 384.739L85.7854 186.026ZM73.392 183.742L214.625 325.352L272.083 268.047L130.85 126.438L-10.3833 -15.172L-67.8408 42.1328L73.392 183.742ZM130.85 126.438L-67.9219 148.571L-62.2807 199.234L136.491 177.101L335.262 154.968L329.621 104.305L130.85 126.438ZM184.709 114.881L-10.9366 73.3746C-5.23342 46.4919 10.0597 23.8446 30.213 8.65141L150.609 168.353L271.006 328.055C325.096 287.277 365.325 227.23 380.355 156.388L184.709 114.881ZM150.609 168.353L349.381 146.224L340.406 65.6077L141.634 87.7371L-57.1376 109.866L-48.1625 190.483L150.609 168.353ZM141.634 87.7371L35.0065 256.943L78.081 284.087L184.709 114.881L291.337 -54.3242L248.262 -81.4684L141.634 87.7371ZM93.8711 142.133L-47.3649 0.526853L-83.4755 36.5429L57.7605 178.149L198.996 319.756L235.107 283.74L93.8711 142.133ZM57.7605 178.149L142.205 -3.14913C166.515 8.17418 185.262 27.6505 195.805 51.1896L13.2788 132.946L-169.248 214.702C-141.036 277.686 -90.8226 329.574 -26.6837 359.448L57.7605 178.149ZM13.2788 132.946L-9.37506 331.658L71.2172 340.846L93.8711 142.133L116.525 -56.5795L35.9327 -65.7673L13.2788 132.946ZM58.5398 123.008L81.1932 -75.7045L30.5663 -81.476L7.91288 117.237L-14.7406 315.95L35.8864 321.721L58.5398 123.008ZM7.91288 117.237L202.326 70.2957C205.32 82.6951 206.156 95.6134 204.704 108.35L5.99081 85.6952L-192.722 63.0402C-196.651 97.5037 -194.345 131.689 -186.5 164.178L7.91288 117.237ZM5.99081 85.6952L204.703 108.351C203.194 121.594 199.233 134.453 193.154 146.205L15.5093 54.3227L-162.135 -37.5596C-178.065 -6.76182 -188.639 27.226 -192.722 63.0394L5.99081 85.6952ZM15.5093 54.3227L-153.977 160.503L-110.947 229.189L58.5398 123.008L228.026 16.8277L184.996 -51.858L15.5093 54.3227ZM166.089 38.4151L11.5523 165.374C-4.46365 145.879 -14.0165 120.272 -13.2503 92.8107L186.672 98.3888L386.594 103.967C388.615 31.5442 363.593 -36.2422 320.625 -88.5434L166.089 38.4151ZM186.672 98.3888L293.302 -70.8154L224.689 -114.054L118.06 55.1504L11.4296 224.355L80.042 267.593L186.672 98.3888ZM118.06 55.1504L183.867 244.014L231.896 227.279L166.089 38.4151L100.282 -150.448L52.2523 -133.713L118.06 55.1504ZM51.4657 83.4633L220.951 -22.72L193.94 -65.8326L24.4554 40.3507L-145.029 146.534L-118.019 189.647L51.4657 83.4633ZM24.4554 40.3507L182.29 163.185C166.507 183.465 143.718 197.947 117.393 203.191L78.3195 7.04524L39.246 -189.101C-30.15 -175.277 -91.1144 -136.791 -133.379 -82.4839L24.4554 40.3507ZM78.3195 7.04524L-110.369 -59.2611L-137.223 17.1569L51.4657 83.4633L240.155 149.77L267.008 73.3516L78.3195 7.04524ZM94.8261 5.31521L97.284 205.3C92.7286 205.356 88.1781 205.127 83.6669 204.612L106.323 5.89954L128.979 -192.813C116.734 -194.209 104.508 -194.819 92.3681 -194.67L94.8261 5.31521ZM106.323 5.89954L83.6668 204.612C61.7178 202.11 41.5143 193 25.5133 179.512L154.421 26.5971L283.329 -126.317C240.958 -162.036 187.764 -186.111 128.979 -192.813L106.323 5.89954ZM154.421 26.5971L88.6161 -162.267L12.1843 -135.637L77.9892 53.2277L143.794 242.092L220.226 215.461L154.421 26.5971ZM77.9892 53.2277L266.678 119.535L283.515 71.6221L94.8261 5.31521L-93.8625 -60.9917L-110.699 -13.0792L77.9892 53.2277Z" fill="black" mask="url(#path-1-inside-1_3403_2)"/>
</g>
<defs>
<clipPath id="clip0_3403_2">
<rect width="191" height="191" fill="white"/>
</clipPath>
</defs>
</svg>
