<svg width="2146" height="579" viewBox="0 0 2146 579" fill="none" xmlns="http://www.w3.org/2000/svg">
<path fill-rule="evenodd" clip-rule="evenodd" d="M252.66 41.7488C181.693 51.4307 118.881 90.9988 79.104 148.62L166.234 287.694L252.66 41.7488ZM214.832 194.642L460.86 108.919C422.466 72.3652 372.284 47.56 315.554 41.0921C299.869 39.3038 284.356 38.994 269.155 40.0518L214.832 194.642ZM536.393 330.34C525.223 403.051 483.729 464.183 426.378 502.229L397.496 242.808L536.393 330.34ZM258.376 542.599C313.883 548.927 367.233 536.74 412.256 510.946L394.07 347.594L209.184 531.991C224.896 537.061 241.341 540.657 258.376 542.599ZM193.572 526.376C127.037 499.927 75.4425 446.378 50.6814 380.681L310.008 410.248L193.572 526.376ZM208.612 383.59L45.347 364.976C35.652 333.001 32.1856 298.565 36.2112 263.256C40.4063 226.462 52.3153 192.421 70.1406 162.566L208.612 383.59ZM317.591 174.722L472.497 120.748C519.064 171.288 544.846 240.463 538.382 313.863L317.591 174.722Z" fill="black"/>
<path d="M754.295 156.26C754.295 168.363 752.827 179.391 749.891 189.346C747.026 199.229 742.514 207.751 736.355 214.912C730.197 222.074 722.283 227.588 712.615 231.455C702.947 235.251 691.382 237.148 677.918 237.148C664.741 237.148 653.318 235.251 643.65 231.455C634.054 227.588 626.141 222.109 619.91 215.02C613.68 207.858 609.061 199.3 606.053 189.346C603.045 179.391 601.541 168.291 601.541 156.045C601.541 139.717 604.227 125.537 609.598 113.506C615.04 101.403 623.419 92.0573 634.734 85.4688C646.049 78.8086 660.516 75.4785 678.133 75.4785C696.036 75.4785 710.574 78.8086 721.746 85.4688C732.99 92.1289 741.225 101.51 746.453 113.613C751.681 125.716 754.295 139.932 754.295 156.26ZM646.229 156.26C646.229 165.713 647.303 173.841 649.451 180.645C651.6 187.448 655.001 192.676 659.656 196.328C664.311 199.98 670.398 201.807 677.918 201.807C685.724 201.807 691.919 199.98 696.502 196.328C701.157 192.676 704.487 187.448 706.492 180.645C708.569 173.841 709.607 165.713 709.607 156.26C709.607 142.08 707.244 130.872 702.518 122.637C697.791 114.401 689.663 110.283 678.133 110.283C670.47 110.283 664.275 112.145 659.549 115.869C654.894 119.593 651.492 124.893 649.344 131.768C647.267 138.643 646.229 146.807 646.229 156.26ZM909.562 113.291V235H877.873L872.609 219.854H870.139C867.632 223.936 864.445 227.266 860.578 229.844C856.783 232.35 852.557 234.176 847.902 235.322C843.247 236.54 838.413 237.148 833.4 237.148C825.451 237.148 818.254 235.609 811.809 232.529C805.435 229.45 800.35 224.616 796.555 218.027C792.831 211.439 790.969 202.952 790.969 192.568V113.291H832.971V179.785C832.971 187.663 834.081 193.678 836.301 197.832C838.592 201.914 842.316 203.955 847.473 203.955C852.772 203.955 856.854 202.523 859.719 199.658C862.655 196.794 864.696 192.568 865.842 186.982C866.988 181.396 867.561 174.593 867.561 166.572V113.291H909.562ZM981.471 235L935.064 113.291H978.893L999.518 185.264C999.732 185.908 1000.09 187.555 1000.59 190.205C1001.16 192.855 1001.45 195.326 1001.45 197.617H1002.2C1002.2 195.182 1002.45 192.855 1002.96 190.635C1003.46 188.415 1003.85 186.696 1004.14 185.479L1025.73 113.291H1069.45L1023.04 235H981.471ZM1168.54 111.143C1170.83 111.143 1173.23 111.322 1175.73 111.68C1178.24 111.966 1180.1 112.217 1181.32 112.432L1177.56 152.07C1176.2 151.712 1174.44 151.426 1172.29 151.211C1170.15 150.924 1167.14 150.781 1163.27 150.781C1160.62 150.781 1157.79 151.032 1154.79 151.533C1151.78 152.035 1148.91 153.109 1146.19 154.756C1143.54 156.331 1141.36 158.766 1139.64 162.061C1137.92 165.283 1137.06 169.652 1137.06 175.166V235H1095.06V113.291H1126.32L1132.87 132.734H1134.91C1137.13 128.724 1139.96 125.107 1143.4 121.885C1146.91 118.59 1150.81 115.977 1155.11 114.043C1159.48 112.109 1163.95 111.143 1168.54 111.143ZM1325.63 173.877C1325.63 184.046 1324.23 193.07 1321.44 200.947C1318.65 208.825 1314.6 215.449 1309.3 220.82C1304 226.191 1297.59 230.273 1290.07 233.066C1282.55 235.788 1274.07 237.148 1264.61 237.148C1255.8 237.148 1247.71 235.788 1240.34 233.066C1233.03 230.273 1226.66 226.191 1221.21 220.82C1215.77 215.449 1211.55 208.825 1208.54 200.947C1205.6 193.07 1204.13 184.046 1204.13 173.877C1204.13 160.413 1206.57 149.027 1211.44 139.717C1216.38 130.407 1223.4 123.317 1232.49 118.447C1241.66 113.577 1252.58 111.143 1265.26 111.143C1276.93 111.143 1287.32 113.577 1296.41 118.447C1305.51 123.317 1312.63 130.407 1317.79 139.717C1323.01 149.027 1325.63 160.413 1325.63 173.877ZM1246.78 173.877C1246.78 180.824 1247.39 186.696 1248.61 191.494C1249.82 196.221 1251.76 199.837 1254.41 202.344C1257.13 204.779 1260.67 205.996 1265.04 205.996C1269.41 205.996 1272.88 204.779 1275.46 202.344C1278.04 199.837 1279.9 196.221 1281.05 191.494C1282.27 186.696 1282.88 180.824 1282.88 173.877C1282.88 166.93 1282.27 161.13 1281.05 156.475C1279.9 151.82 1278.01 148.311 1275.36 145.947C1272.78 143.584 1269.27 142.402 1264.83 142.402C1258.45 142.402 1253.84 145.052 1250.97 150.352C1248.18 155.651 1246.78 163.493 1246.78 173.877ZM1402.91 113.291V235H1360.91V113.291H1402.91ZM1382.07 64.3066C1388.08 64.3066 1393.31 65.5599 1397.75 68.0664C1402.26 70.5729 1404.52 75.5501 1404.52 82.998C1404.52 90.2311 1402.26 95.1367 1397.75 97.7148C1393.31 100.221 1388.08 101.475 1382.07 101.475C1375.91 101.475 1370.65 100.221 1366.28 97.7148C1361.98 95.1367 1359.83 90.2311 1359.83 82.998C1359.83 75.5501 1361.98 70.5729 1366.28 68.0664C1370.65 65.5599 1375.91 64.3066 1382.07 64.3066ZM1516.71 111.143C1519 111.143 1521.4 111.322 1523.91 111.68C1526.41 111.966 1528.28 112.217 1529.49 112.432L1525.73 152.07C1524.37 151.712 1522.62 151.426 1520.47 151.211C1518.32 150.924 1515.31 150.781 1511.45 150.781C1508.8 150.781 1505.97 151.032 1502.96 151.533C1499.95 152.035 1497.09 153.109 1494.37 154.756C1491.72 156.331 1489.53 158.766 1487.81 162.061C1486.1 165.283 1485.24 169.652 1485.24 175.166V235H1443.23V113.291H1474.49L1481.05 132.734H1483.09C1485.31 128.724 1488.14 125.107 1491.57 121.885C1495.08 118.59 1498.99 115.977 1503.28 114.043C1507.65 112.109 1512.13 111.143 1516.71 111.143Z" fill="black"/>
<path d="M671.038 373.803C664.403 373.803 659.139 371.538 655.247 367.008C651.387 362.478 649.457 355.747 649.457 346.814C649.457 337.786 651.435 330.976 655.391 326.382C659.347 321.756 664.61 319.443 671.182 319.443C673.957 319.443 676.382 319.81 678.455 320.544C680.529 321.278 682.315 322.267 683.815 323.511C685.314 324.723 686.574 326.111 687.595 327.674H688.169C688.042 326.685 687.914 325.329 687.786 323.606C687.659 321.884 687.595 320.48 687.595 319.396V298.389H695.538V372.846H689.126L687.93 365.381H687.595C686.606 366.944 685.346 368.364 683.815 369.64C682.315 370.916 680.513 371.937 678.407 372.702C676.334 373.436 673.878 373.803 671.038 373.803ZM672.282 367.199C677.897 367.199 681.869 365.604 684.198 362.414C686.526 359.224 687.691 354.487 687.691 348.202V346.767C687.691 340.099 686.574 334.979 684.341 331.406C682.14 327.833 678.12 326.047 672.282 326.047C667.402 326.047 663.749 327.929 661.324 331.693C658.9 335.426 657.688 340.53 657.688 347.006C657.688 353.45 658.884 358.426 661.277 361.936C663.701 365.445 667.37 367.199 672.282 367.199ZM723.551 302.887L724.268 303.939C723.694 306.268 722.96 308.772 722.067 311.452C721.174 314.1 720.201 316.748 719.148 319.396C718.096 322.043 717.043 324.532 715.99 326.86H710.152C710.631 325.042 711.109 323.096 711.588 321.022C712.098 318.949 712.577 316.843 713.023 314.706C713.47 312.569 713.869 310.495 714.22 308.485C714.602 306.476 714.921 304.609 715.177 302.887H723.551ZM746.778 298.389V320.64C746.778 321.916 746.746 323.208 746.682 324.516C746.618 325.792 746.507 326.972 746.347 328.057H746.873C747.958 326.206 749.33 324.659 750.989 323.415C752.679 322.139 754.594 321.182 756.731 320.544C758.868 319.874 761.133 319.539 763.526 319.539C767.737 319.539 771.246 320.209 774.053 321.549C776.892 322.889 779.014 324.962 780.417 327.77C781.853 330.577 782.571 334.214 782.571 338.68V372.846H774.723V339.206C774.723 334.836 773.718 331.566 771.708 329.396C769.731 327.227 766.684 326.143 762.569 326.143C758.677 326.143 755.567 326.892 753.238 328.392C750.941 329.859 749.282 332.028 748.261 334.899C747.272 337.771 746.778 341.28 746.778 345.427V372.846H738.834V298.389H746.778ZM811.779 320.4V372.846H803.836V320.4H811.779ZM807.903 300.781C809.211 300.781 810.328 301.212 811.253 302.073C812.21 302.903 812.689 304.211 812.689 305.997C812.689 307.752 812.21 309.06 811.253 309.921C810.328 310.782 809.211 311.213 807.903 311.213C806.532 311.213 805.383 310.782 804.458 309.921C803.565 309.06 803.118 307.752 803.118 305.997C803.118 304.211 803.565 302.903 804.458 302.073C805.383 301.212 806.532 300.781 807.903 300.781ZM867.45 358.49C867.45 361.84 866.604 364.663 864.914 366.96C863.255 369.225 860.862 370.932 857.736 372.08C854.642 373.229 850.941 373.803 846.634 373.803C842.966 373.803 839.792 373.516 837.112 372.941C834.432 372.367 832.088 371.554 830.078 370.501V363.18C832.215 364.232 834.767 365.189 837.734 366.051C840.701 366.912 843.731 367.343 846.826 367.343C851.356 367.343 854.642 366.609 856.683 365.142C858.725 363.674 859.746 361.68 859.746 359.16C859.746 357.725 859.331 356.465 858.502 355.38C857.704 354.263 856.348 353.195 854.434 352.174C852.52 351.121 849.872 349.973 846.491 348.729C843.141 347.452 840.238 346.192 837.782 344.948C835.357 343.672 833.475 342.125 832.135 340.307C830.827 338.488 830.173 336.128 830.173 333.225C830.173 328.79 831.96 325.393 835.533 323.032C839.138 320.64 843.859 319.443 849.697 319.443C852.855 319.443 855.806 319.762 858.549 320.4C861.325 321.007 863.909 321.836 866.301 322.889L863.622 329.253C861.452 328.328 859.14 327.546 856.683 326.908C854.227 326.27 851.723 325.951 849.171 325.951C845.502 325.951 842.679 326.557 840.701 327.77C838.755 328.982 837.782 330.641 837.782 332.746C837.782 334.373 838.229 335.713 839.122 336.766C840.047 337.818 841.514 338.807 843.524 339.732C845.534 340.658 848.182 341.742 851.467 342.986C854.753 344.199 857.592 345.459 859.985 346.767C862.378 348.043 864.212 349.606 865.488 351.456C866.796 353.274 867.45 355.619 867.45 358.49ZM902.066 367.295C903.374 367.295 904.713 367.183 906.085 366.96C907.457 366.737 908.573 366.465 909.435 366.146V372.319C908.51 372.734 907.218 373.085 905.559 373.372C903.932 373.659 902.337 373.803 900.774 373.803C897.998 373.803 895.478 373.324 893.213 372.367C890.948 371.378 889.13 369.719 887.758 367.391C886.418 365.062 885.748 361.84 885.748 357.725V326.621H878.283V322.745L885.796 319.635L888.954 308.246H893.74V320.4H909.1V326.621H893.74V357.485C893.74 360.771 894.489 363.228 895.989 364.854C897.52 366.481 899.545 367.295 902.066 367.295ZM970.178 346.527C970.178 350.834 969.619 354.678 968.503 358.06C967.386 361.441 965.775 364.296 963.67 366.625C961.564 368.954 959.012 370.74 956.014 371.984C953.047 373.197 949.681 373.803 945.917 373.803C942.408 373.803 939.186 373.197 936.251 371.984C933.348 370.74 930.828 368.954 928.69 366.625C926.585 364.296 924.942 361.441 923.762 358.06C922.613 354.678 922.039 350.834 922.039 346.527C922.039 340.785 923.012 335.904 924.958 331.885C926.904 327.833 929.679 324.755 933.284 322.649C936.921 320.512 941.243 319.443 946.252 319.443C951.037 319.443 955.216 320.512 958.789 322.649C962.394 324.787 965.185 327.881 967.163 331.933C969.173 335.952 970.178 340.817 970.178 346.527ZM930.269 346.527C930.269 350.738 930.828 354.391 931.944 357.485C933.061 360.58 934.783 362.972 937.112 364.663C939.441 366.354 942.44 367.199 946.108 367.199C949.745 367.199 952.728 366.354 955.056 364.663C957.417 362.972 959.156 360.58 960.272 357.485C961.389 354.391 961.947 350.738 961.947 346.527C961.947 342.348 961.389 338.743 960.272 335.713C959.156 332.65 957.433 330.29 955.104 328.631C952.776 326.972 949.761 326.143 946.06 326.143C940.605 326.143 936.602 327.945 934.05 331.55C931.529 335.155 930.269 340.147 930.269 346.527ZM996.754 320.4V372.846H988.811V320.4H996.754ZM992.878 300.781C994.186 300.781 995.303 301.212 996.228 302.073C997.185 302.903 997.664 304.211 997.664 305.997C997.664 307.752 997.185 309.06 996.228 309.921C995.303 310.782 994.186 311.213 992.878 311.213C991.507 311.213 990.358 310.782 989.433 309.921C988.54 309.06 988.093 307.752 988.093 305.997C988.093 304.211 988.54 302.903 989.433 302.073C990.358 301.212 991.507 300.781 992.878 300.781ZM1042.33 319.443C1043.38 319.443 1044.48 319.507 1045.63 319.635C1046.78 319.73 1047.8 319.874 1048.69 320.065L1047.69 327.435C1046.83 327.211 1045.87 327.036 1044.82 326.908C1043.76 326.781 1042.77 326.717 1041.85 326.717C1039.74 326.717 1037.75 327.147 1035.87 328.009C1034.02 328.838 1032.39 330.05 1030.99 331.646C1029.58 333.209 1028.48 335.107 1027.69 337.34C1026.89 339.541 1026.49 341.997 1026.49 344.709V372.846H1018.5V320.4H1025.1L1025.96 330.066H1026.3C1027.38 328.12 1028.69 326.35 1030.22 324.755C1031.75 323.128 1033.52 321.836 1035.53 320.879C1037.57 319.922 1039.84 319.443 1042.33 319.443ZM1083.69 319.443C1088.16 319.443 1091.99 320.432 1095.18 322.41C1098.37 324.388 1100.81 327.163 1102.5 330.736C1104.19 334.277 1105.03 338.424 1105.03 343.178V348.106H1068.81C1068.9 354.263 1070.44 358.953 1073.4 362.175C1076.37 365.397 1080.55 367.008 1085.94 367.008C1089.26 367.008 1092.19 366.705 1094.74 366.099C1097.3 365.493 1099.94 364.599 1102.69 363.419V370.405C1100.04 371.586 1097.41 372.447 1094.79 372.989C1092.21 373.532 1089.15 373.803 1085.61 373.803C1080.56 373.803 1076.16 372.782 1072.4 370.74C1068.67 368.667 1065.76 365.636 1063.69 361.648C1061.62 357.661 1060.58 352.78 1060.58 347.006C1060.58 341.359 1061.52 336.479 1063.4 332.363C1065.32 328.216 1068 325.026 1071.44 322.793C1074.92 320.56 1079 319.443 1083.69 319.443ZM1083.6 325.951C1079.35 325.951 1075.97 327.339 1073.45 330.114C1070.93 332.89 1069.43 336.766 1068.95 341.742H1096.71C1096.67 338.616 1096.18 335.872 1095.22 333.512C1094.3 331.119 1092.88 329.269 1090.96 327.961C1089.05 326.621 1086.59 325.951 1083.6 325.951ZM1172.45 373.803C1165.81 373.803 1160.55 371.538 1156.66 367.008C1152.8 362.478 1150.87 355.747 1150.87 346.814C1150.87 337.786 1152.84 330.976 1156.8 326.382C1160.75 321.756 1166.02 319.443 1172.59 319.443C1175.37 319.443 1177.79 319.81 1179.86 320.544C1181.94 321.278 1183.72 322.267 1185.22 323.511C1186.72 324.723 1187.98 326.111 1189 327.674H1189.58C1189.45 326.685 1189.32 325.329 1189.19 323.606C1189.07 321.884 1189 320.48 1189 319.396V298.389H1196.95V372.846H1190.53L1189.34 365.381H1189C1188.01 366.944 1186.75 368.364 1185.22 369.64C1183.72 370.916 1181.92 371.937 1179.82 372.702C1177.74 373.436 1175.29 373.803 1172.45 373.803ZM1173.69 367.199C1179.3 367.199 1183.28 365.604 1185.61 362.414C1187.93 359.224 1189.1 354.487 1189.1 348.202V346.767C1189.1 340.099 1187.98 334.979 1185.75 331.406C1183.55 327.833 1179.53 326.047 1173.69 326.047C1168.81 326.047 1165.16 327.929 1162.73 331.693C1160.31 335.426 1159.1 340.53 1159.1 347.006C1159.1 353.45 1160.29 358.426 1162.68 361.936C1165.11 365.445 1168.78 367.199 1173.69 367.199ZM1238.88 319.443C1243.35 319.443 1247.18 320.432 1250.37 322.41C1253.56 324.388 1256 327.163 1257.69 330.736C1259.38 334.277 1260.23 338.424 1260.23 343.178V348.106H1224C1224.1 354.263 1225.63 358.953 1228.6 362.175C1231.56 365.397 1235.74 367.008 1241.13 367.008C1244.45 367.008 1247.38 366.705 1249.94 366.099C1252.49 365.493 1255.14 364.599 1257.88 363.419V370.405C1255.23 371.586 1252.6 372.447 1249.98 372.989C1247.4 373.532 1244.34 373.803 1240.8 373.803C1235.76 373.803 1231.35 372.782 1227.59 370.74C1223.86 368.667 1220.95 365.636 1218.88 361.648C1216.81 357.661 1215.77 352.78 1215.77 347.006C1215.77 341.359 1216.71 336.479 1218.59 332.363C1220.51 328.216 1223.19 325.026 1226.63 322.793C1230.11 320.56 1234.19 319.443 1238.88 319.443ZM1238.79 325.951C1234.54 325.951 1231.16 327.339 1228.64 330.114C1226.12 332.89 1224.62 336.766 1224.14 341.742H1251.9C1251.87 338.616 1251.37 335.872 1250.42 333.512C1249.49 331.119 1248.07 329.269 1246.16 327.961C1244.24 326.621 1241.79 325.951 1238.79 325.951ZM1316.97 372.846H1308.98V298.389H1316.97V372.846ZM1344.93 302.887L1345.65 303.939C1345.08 306.268 1344.34 308.772 1343.45 311.452C1342.56 314.1 1341.58 316.748 1340.53 319.396C1339.48 322.043 1338.42 324.532 1337.37 326.86H1331.53C1332.01 325.042 1332.49 323.096 1332.97 321.022C1333.48 318.949 1333.96 316.843 1334.4 314.706C1334.85 312.569 1335.25 310.495 1335.6 308.485C1335.98 306.476 1336.3 304.609 1336.56 302.887H1344.93ZM1379.83 319.539C1386.09 319.539 1390.73 320.943 1393.76 323.75C1396.79 326.557 1398.31 331.039 1398.31 337.196V372.846H1392.52L1390.98 365.094H1390.6C1389.13 367.008 1387.6 368.619 1386.01 369.927C1384.41 371.203 1382.56 372.176 1380.46 372.846C1378.38 373.484 1375.83 373.803 1372.8 373.803C1369.61 373.803 1366.77 373.244 1364.28 372.128C1361.83 371.011 1359.88 369.321 1358.45 367.056C1357.04 364.791 1356.34 361.92 1356.34 358.442C1356.34 353.211 1358.41 349.191 1362.56 346.384C1366.71 343.576 1373.02 342.045 1381.51 341.79L1390.55 341.407V338.201C1390.55 333.671 1389.58 330.497 1387.63 328.679C1385.69 326.86 1382.95 325.951 1379.4 325.951C1376.66 325.951 1374.04 326.35 1371.56 327.147C1369.07 327.945 1366.71 328.886 1364.47 329.971L1362.03 323.941C1364.39 322.729 1367.11 321.692 1370.17 320.831C1373.23 319.97 1376.45 319.539 1379.83 319.539ZM1390.46 347.006L1382.47 347.341C1375.93 347.596 1371.32 348.665 1368.64 350.547C1365.96 352.429 1364.62 355.093 1364.62 358.538C1364.62 361.537 1365.53 363.754 1367.35 365.189C1369.16 366.625 1371.57 367.343 1374.57 367.343C1379.23 367.343 1383.04 366.051 1386.01 363.467C1388.97 360.883 1390.46 357.007 1390.46 351.839V347.006ZM1443.4 319.443C1444.45 319.443 1445.55 319.507 1446.7 319.635C1447.85 319.73 1448.87 319.874 1449.77 320.065L1448.76 327.435C1447.9 327.211 1446.94 327.036 1445.89 326.908C1444.84 326.781 1443.85 326.717 1442.92 326.717C1440.82 326.717 1438.82 327.147 1436.94 328.009C1435.09 328.838 1433.46 330.05 1432.06 331.646C1430.66 333.209 1429.56 335.107 1428.76 337.34C1427.96 339.541 1427.56 341.997 1427.56 344.709V372.846H1419.57V320.4H1426.17L1427.04 330.066H1427.37C1428.46 328.12 1429.76 326.35 1431.29 324.755C1432.83 323.128 1434.6 321.836 1436.61 320.879C1438.65 319.922 1440.91 319.443 1443.4 319.443ZM1481.51 367.295C1482.82 367.295 1484.16 367.183 1485.53 366.96C1486.9 366.737 1488.02 366.465 1488.88 366.146V372.319C1487.95 372.734 1486.66 373.085 1485 373.372C1483.38 373.659 1481.78 373.803 1480.22 373.803C1477.44 373.803 1474.92 373.324 1472.66 372.367C1470.39 371.378 1468.57 369.719 1467.2 367.391C1465.86 365.062 1465.19 361.84 1465.19 357.725V326.621H1457.73V322.745L1465.24 319.635L1468.4 308.246H1473.18V320.4H1488.54V326.621H1473.18V357.485C1473.18 360.771 1473.93 363.228 1475.43 364.854C1476.96 366.481 1478.99 367.295 1481.51 367.295ZM672.57 444.443C677.036 444.443 680.864 445.432 684.054 447.41C687.244 449.388 689.684 452.163 691.375 455.736C693.066 459.277 693.911 463.424 693.911 468.178V473.106H657.688C657.783 479.263 659.315 483.953 662.281 487.175C665.248 490.397 669.427 492.008 674.819 492.008C678.136 492.008 681.071 491.705 683.623 491.099C686.175 490.493 688.823 489.599 691.567 488.419V495.405C688.919 496.586 686.287 497.447 683.671 497.989C681.087 498.532 678.025 498.803 674.484 498.803C669.443 498.803 665.041 497.782 661.277 495.74C657.544 493.667 654.641 490.636 652.568 486.648C650.494 482.661 649.457 477.78 649.457 472.006C649.457 466.359 650.398 461.479 652.281 457.363C654.195 453.216 656.874 450.026 660.32 447.793C663.797 445.56 667.88 444.443 672.57 444.443ZM672.474 450.951C668.231 450.951 664.85 452.339 662.329 455.114C659.809 457.89 658.31 461.766 657.831 466.742H685.585C685.553 463.616 685.059 460.872 684.102 458.512C683.177 456.119 681.757 454.269 679.843 452.961C677.929 451.621 675.473 450.951 672.474 450.951ZM729.245 492.295C730.553 492.295 731.893 492.183 733.265 491.96C734.636 491.737 735.753 491.465 736.614 491.146V497.319C735.689 497.734 734.397 498.085 732.738 498.372C731.111 498.659 729.516 498.803 727.953 498.803C725.178 498.803 722.657 498.324 720.392 497.367C718.127 496.378 716.309 494.719 714.937 492.391C713.598 490.062 712.928 486.84 712.928 482.725V451.621H705.463V447.745L712.975 444.635L716.134 433.246H720.919V445.4H736.279V451.621H720.919V482.485C720.919 485.771 721.668 488.228 723.168 489.854C724.699 491.481 726.725 492.295 729.245 492.295ZM801.156 498.803C794.521 498.803 789.257 496.538 785.365 492.008C781.505 487.478 779.575 480.747 779.575 471.814C779.575 462.786 781.553 455.976 785.509 451.382C789.465 446.756 794.728 444.443 801.3 444.443C804.075 444.443 806.5 444.81 808.573 445.544C810.647 446.278 812.433 447.267 813.933 448.511C815.432 449.723 816.692 451.111 817.713 452.674H818.287C818.16 451.685 818.032 450.329 817.904 448.606C817.777 446.884 817.713 445.48 817.713 444.396V423.389H825.656V497.846H819.244L818.048 490.381H817.713C816.724 491.944 815.464 493.364 813.933 494.64C812.433 495.916 810.631 496.937 808.525 497.702C806.452 498.436 803.995 498.803 801.156 498.803ZM802.4 492.199C808.015 492.199 811.987 490.604 814.315 487.414C816.644 484.224 817.809 479.487 817.809 473.202V471.767C817.809 465.099 816.692 459.979 814.459 456.406C812.258 452.833 808.238 451.047 802.4 451.047C797.52 451.047 793.867 452.929 791.442 456.693C789.018 460.426 787.806 465.53 787.806 472.006C787.806 478.45 789.002 483.426 791.395 486.936C793.819 490.445 797.488 492.199 802.4 492.199ZM867.593 444.443C872.06 444.443 875.888 445.432 879.078 447.41C882.268 449.388 884.708 452.163 886.399 455.736C888.09 459.277 888.935 463.424 888.935 468.178V473.106H852.712C852.807 479.263 854.339 483.953 857.305 487.175C860.272 490.397 864.451 492.008 869.842 492.008C873.16 492.008 876.095 491.705 878.647 491.099C881.199 490.493 883.847 489.599 886.59 488.419V495.405C883.943 496.586 881.311 497.447 878.695 497.989C876.111 498.532 873.048 498.803 869.507 498.803C864.467 498.803 860.065 497.782 856.3 495.74C852.568 493.667 849.665 490.636 847.591 486.648C845.518 482.661 844.481 477.78 844.481 472.006C844.481 466.359 845.422 461.479 847.304 457.363C849.218 453.216 851.898 450.026 855.343 447.793C858.821 445.56 862.904 444.443 867.593 444.443ZM867.498 450.951C863.255 450.951 859.873 452.339 857.353 455.114C854.833 457.89 853.334 461.766 852.855 466.742H880.609C880.577 463.616 880.083 460.872 879.126 458.512C878.201 456.119 876.781 454.269 874.867 452.961C872.953 451.621 870.496 450.951 867.498 450.951ZM994.63 444.443C1000.4 444.443 1004.76 445.959 1007.69 448.989C1010.63 451.988 1012.1 456.821 1012.1 463.488V497.846H1004.25V463.871C1004.25 459.628 1003.32 456.454 1001.47 454.349C999.654 452.211 996.943 451.143 993.338 451.143C988.265 451.143 984.581 452.61 982.284 455.545C979.987 458.48 978.839 462.802 978.839 468.513V497.846H970.943V463.871C970.943 461.032 970.528 458.671 969.699 456.789C968.902 454.907 967.689 453.503 966.062 452.578C964.467 451.621 962.442 451.143 959.985 451.143C956.508 451.143 953.717 451.86 951.611 453.296C949.506 454.731 947.974 456.869 947.017 459.708C946.092 462.515 945.63 465.977 945.63 470.092V497.846H937.686V445.4H944.098L945.295 452.817H945.725C946.778 450.999 948.102 449.468 949.697 448.224C951.292 446.979 953.079 446.038 955.056 445.4C957.034 444.762 959.14 444.443 961.373 444.443C965.361 444.443 968.694 445.193 971.374 446.692C974.085 448.16 976.047 450.409 977.26 453.439H977.69C979.413 450.409 981.774 448.16 984.772 446.692C987.771 445.193 991.057 444.443 994.63 444.443ZM1076.62 445.4V497.846H1070.11L1068.96 490.477H1068.53C1067.45 492.295 1066.04 493.826 1064.32 495.07C1062.6 496.314 1060.65 497.24 1058.48 497.846C1056.35 498.484 1054.06 498.803 1051.64 498.803C1047.49 498.803 1044.02 498.133 1041.21 496.793C1038.4 495.453 1036.28 493.38 1034.84 490.572C1033.44 487.765 1032.74 484.16 1032.74 479.758V445.4H1040.78V479.184C1040.78 483.554 1041.77 486.824 1043.74 488.993C1045.72 491.131 1048.74 492.199 1052.79 492.199C1056.68 492.199 1059.77 491.465 1062.07 489.998C1064.4 488.531 1066.08 486.377 1067.1 483.538C1068.12 480.667 1068.63 477.158 1068.63 473.011V445.4H1076.62ZM1132.24 483.49C1132.24 486.84 1131.4 489.663 1129.71 491.96C1128.05 494.225 1125.65 495.932 1122.53 497.08C1119.43 498.229 1115.73 498.803 1111.43 498.803C1107.76 498.803 1104.58 498.516 1101.9 497.941C1099.22 497.367 1096.88 496.554 1094.87 495.501V488.18C1097.01 489.232 1099.56 490.189 1102.53 491.051C1105.49 491.912 1108.52 492.343 1111.62 492.343C1116.15 492.343 1119.43 491.609 1121.47 490.142C1123.52 488.674 1124.54 486.68 1124.54 484.16C1124.54 482.725 1124.12 481.465 1123.29 480.38C1122.5 479.263 1121.14 478.195 1119.23 477.174C1117.31 476.121 1114.66 474.973 1111.28 473.729C1107.93 472.452 1105.03 471.192 1102.57 469.948C1100.15 468.672 1098.27 467.125 1096.93 465.307C1095.62 463.488 1094.96 461.128 1094.96 458.225C1094.96 453.79 1096.75 450.393 1100.32 448.032C1103.93 445.64 1108.65 444.443 1114.49 444.443C1117.65 444.443 1120.6 444.762 1123.34 445.4C1126.12 446.007 1128.7 446.836 1131.09 447.889L1128.41 454.253C1126.24 453.328 1123.93 452.546 1121.47 451.908C1119.02 451.27 1116.51 450.951 1113.96 450.951C1110.29 450.951 1107.47 451.557 1105.49 452.77C1103.55 453.982 1102.57 455.641 1102.57 457.746C1102.57 459.373 1103.02 460.713 1103.91 461.766C1104.84 462.818 1106.31 463.807 1108.32 464.732C1110.33 465.658 1112.97 466.742 1116.26 467.986C1119.54 469.199 1122.38 470.459 1124.78 471.767C1127.17 473.043 1129 474.606 1130.28 476.456C1131.59 478.274 1132.24 480.619 1132.24 483.49ZM1170.11 444.443C1174.58 444.443 1178.41 445.432 1181.6 447.41C1184.79 449.388 1187.23 452.163 1188.92 455.736C1190.61 459.277 1191.45 463.424 1191.45 468.178V473.106H1155.23C1155.32 479.263 1156.86 483.953 1159.82 487.175C1162.79 490.397 1166.97 492.008 1172.36 492.008C1175.68 492.008 1178.61 491.705 1181.16 491.099C1183.72 490.493 1186.36 489.599 1189.11 488.419V495.405C1186.46 496.586 1183.83 497.447 1181.21 497.989C1178.63 498.532 1175.57 498.803 1172.03 498.803C1166.98 498.803 1162.58 497.782 1158.82 495.74C1155.09 493.667 1152.18 490.636 1150.11 486.648C1148.04 482.661 1147 477.78 1147 472.006C1147 466.359 1147.94 461.479 1149.82 457.363C1151.74 453.216 1154.42 450.026 1157.86 447.793C1161.34 445.56 1165.42 444.443 1170.11 444.443ZM1170.02 450.951C1165.77 450.951 1162.39 452.339 1159.87 455.114C1157.35 457.89 1155.85 461.766 1155.37 466.742H1183.13C1183.09 463.616 1182.6 460.872 1181.64 458.512C1180.72 456.119 1179.3 454.269 1177.38 452.961C1175.47 451.621 1173.01 450.951 1170.02 450.951ZM1183.27 422.767V423.724C1182.63 424.649 1181.75 425.765 1180.64 427.073C1179.55 428.349 1178.34 429.705 1177 431.141C1175.66 432.544 1174.31 433.884 1172.93 435.16C1171.59 436.436 1170.35 437.537 1169.2 438.462H1163.89V437.313C1164.91 436.101 1166.03 434.65 1167.24 432.959C1168.45 431.236 1169.63 429.482 1170.78 427.695C1171.93 425.877 1172.89 424.234 1173.65 422.767H1183.27ZM1255.07 471.527C1255.07 475.834 1254.51 479.678 1253.39 483.06C1252.28 486.441 1250.66 489.296 1248.56 491.625C1246.45 493.954 1243.9 495.74 1240.9 496.984C1237.94 498.197 1234.57 498.803 1230.81 498.803C1227.3 498.803 1224.07 498.197 1221.14 496.984C1218.24 495.74 1215.72 493.954 1213.58 491.625C1211.47 489.296 1209.83 486.441 1208.65 483.06C1207.5 479.678 1206.93 475.834 1206.93 471.527C1206.93 465.785 1207.9 460.904 1209.85 456.885C1211.79 452.833 1214.57 449.755 1218.17 447.649C1221.81 445.512 1226.13 444.443 1231.14 444.443C1235.93 444.443 1240.11 445.512 1243.68 447.649C1247.28 449.787 1250.07 452.881 1252.05 456.933C1254.06 460.952 1255.07 465.817 1255.07 471.527ZM1215.16 471.527C1215.16 475.738 1215.72 479.391 1216.83 482.485C1217.95 485.58 1219.67 487.972 1222 489.663C1224.33 491.354 1227.33 492.199 1231 492.199C1234.63 492.199 1237.62 491.354 1239.95 489.663C1242.31 487.972 1244.04 485.58 1245.16 482.485C1246.28 479.391 1246.84 475.738 1246.84 471.527C1246.84 467.348 1246.28 463.743 1245.16 460.713C1244.04 457.65 1242.32 455.29 1239.99 453.631C1237.66 451.972 1234.65 451.143 1230.95 451.143C1225.49 451.143 1221.49 452.945 1218.94 456.55C1216.42 460.155 1215.16 465.147 1215.16 471.527ZM1281.69 497.846H1273.7V423.389H1281.69V497.846ZM1348.61 471.527C1348.61 475.834 1348.05 479.678 1346.93 483.06C1345.82 486.441 1344.2 489.296 1342.1 491.625C1339.99 493.954 1337.44 495.74 1334.44 496.984C1331.48 498.197 1328.11 498.803 1324.35 498.803C1320.84 498.803 1317.62 498.197 1314.68 496.984C1311.78 495.74 1309.26 493.954 1307.12 491.625C1305.01 489.296 1303.37 486.441 1302.19 483.06C1301.04 479.678 1300.47 475.834 1300.47 471.527C1300.47 465.785 1301.44 460.904 1303.39 456.885C1305.33 452.833 1308.11 449.755 1311.71 447.649C1315.35 445.512 1319.67 444.443 1324.68 444.443C1329.47 444.443 1333.65 445.512 1337.22 447.649C1340.82 449.787 1343.61 452.881 1345.59 456.933C1347.6 460.952 1348.61 465.817 1348.61 471.527ZM1308.7 471.527C1308.7 475.738 1309.26 479.391 1310.37 482.485C1311.49 485.58 1313.21 487.972 1315.54 489.663C1317.87 491.354 1320.87 492.199 1324.54 492.199C1328.17 492.199 1331.16 491.354 1333.49 489.663C1335.85 487.972 1337.59 485.58 1338.7 482.485C1339.82 479.391 1340.38 475.738 1340.38 471.527C1340.38 467.348 1339.82 463.743 1338.7 460.713C1337.59 457.65 1335.86 455.29 1333.53 453.631C1331.2 451.972 1328.19 451.143 1324.49 451.143C1319.03 451.143 1315.03 452.945 1312.48 456.55C1309.96 460.155 1308.7 465.147 1308.7 471.527ZM1381.88 521.389C1374.99 521.389 1369.68 520.097 1365.95 517.513C1362.22 514.961 1360.35 511.372 1360.35 506.746C1360.35 503.46 1361.39 500.653 1363.46 498.324C1365.57 495.995 1368.47 494.448 1372.17 493.683C1370.8 493.045 1369.62 492.088 1368.63 490.812C1367.67 489.535 1367.19 488.068 1367.19 486.409C1367.19 484.495 1367.72 482.82 1368.77 481.385C1369.86 479.917 1371.5 478.514 1373.7 477.174C1370.96 476.057 1368.72 474.175 1367 471.527C1365.31 468.848 1364.46 465.737 1364.46 462.196C1364.46 458.432 1365.25 455.226 1366.81 452.578C1368.37 449.898 1370.64 447.857 1373.6 446.453C1376.57 445.049 1380.16 444.348 1384.37 444.348C1385.3 444.348 1386.22 444.396 1387.15 444.491C1388.1 444.555 1389.01 444.667 1389.87 444.826C1390.74 444.954 1391.49 445.113 1392.12 445.305H1410.12V450.425L1400.45 451.621C1401.41 452.865 1402.2 454.365 1402.84 456.119C1403.48 457.874 1403.8 459.82 1403.8 461.957C1403.8 467.189 1402.03 471.352 1398.49 474.446C1394.95 477.509 1390.08 479.04 1383.89 479.04C1382.43 479.04 1380.93 478.912 1379.39 478.657C1377.83 479.519 1376.64 480.476 1375.81 481.528C1375.01 482.581 1374.61 483.793 1374.61 485.165C1374.61 486.186 1374.91 486.999 1375.52 487.605C1376.16 488.212 1377.07 488.658 1378.25 488.945C1379.43 489.201 1380.85 489.328 1382.5 489.328H1391.74C1397.45 489.328 1401.82 490.524 1404.85 492.917C1407.91 495.31 1409.45 498.803 1409.45 503.396C1409.45 509.202 1407.08 513.653 1402.36 516.747C1397.64 519.841 1390.82 521.389 1381.88 521.389ZM1382.12 515.168C1386.46 515.168 1390.05 514.721 1392.89 513.828C1395.76 512.967 1397.9 511.707 1399.3 510.048C1400.74 508.421 1401.45 506.475 1401.45 504.21C1401.45 502.104 1400.98 500.509 1400.02 499.425C1399.06 498.372 1397.66 497.67 1395.81 497.319C1393.96 496.937 1391.69 496.745 1389.01 496.745H1379.92C1377.56 496.745 1375.5 497.112 1373.75 497.846C1371.99 498.579 1370.64 499.664 1369.68 501.1C1368.76 502.535 1368.29 504.322 1368.29 506.459C1368.29 509.298 1369.49 511.451 1371.88 512.919C1374.27 514.418 1377.69 515.168 1382.12 515.168ZM1384.18 473.25C1387.98 473.25 1390.83 472.293 1392.75 470.379C1394.66 468.465 1395.62 465.674 1395.62 462.005C1395.62 458.081 1394.64 455.146 1392.7 453.2C1390.75 451.222 1387.88 450.233 1384.08 450.233C1380.45 450.233 1377.64 451.254 1375.66 453.296C1373.72 455.306 1372.74 458.257 1372.74 462.148C1372.74 465.721 1373.73 468.465 1375.71 470.379C1377.69 472.293 1380.51 473.25 1384.18 473.25ZM1433.29 445.4V497.846H1425.35V445.4H1433.29ZM1429.42 425.781C1430.73 425.781 1431.84 426.212 1432.77 427.073C1433.73 427.903 1434.2 429.211 1434.2 430.997C1434.2 432.752 1433.73 434.06 1432.77 434.921C1431.84 435.782 1430.73 436.213 1429.42 436.213C1428.05 436.213 1426.9 435.782 1425.97 434.921C1425.08 434.06 1424.63 432.752 1424.63 430.997C1424.63 429.211 1425.08 427.903 1425.97 427.073C1426.9 426.212 1428.05 425.781 1429.42 425.781ZM1475.23 444.443C1479.7 444.443 1483.53 445.432 1486.72 447.41C1489.91 449.388 1492.35 452.163 1494.04 455.736C1495.73 459.277 1496.57 463.424 1496.57 468.178V473.106H1460.35C1460.45 479.263 1461.98 483.953 1464.94 487.175C1467.91 490.397 1472.09 492.008 1477.48 492.008C1480.8 492.008 1483.73 491.705 1486.29 491.099C1488.84 490.493 1491.49 489.599 1494.23 488.419V495.405C1491.58 496.586 1488.95 497.447 1486.33 497.989C1483.75 498.532 1480.69 498.803 1477.15 498.803C1472.11 498.803 1467.7 497.782 1463.94 495.74C1460.21 493.667 1457.3 490.636 1455.23 486.648C1453.16 482.661 1452.12 477.78 1452.12 472.006C1452.12 466.359 1453.06 461.479 1454.94 457.363C1456.86 453.216 1459.54 450.026 1462.98 447.793C1466.46 445.56 1470.54 444.443 1475.23 444.443ZM1475.14 450.951C1470.89 450.951 1467.51 452.339 1464.99 455.114C1462.47 457.89 1460.97 461.766 1460.49 466.742H1488.25C1488.22 463.616 1487.72 460.872 1486.76 458.512C1485.84 456.119 1484.42 454.269 1482.51 452.961C1480.59 451.621 1478.13 450.951 1475.14 450.951ZM1570.16 444.443C1576.38 444.443 1581.09 445.975 1584.28 449.037C1587.47 452.068 1589.06 456.949 1589.06 463.68V497.846H1581.21V464.206C1581.21 459.836 1580.21 456.566 1578.2 454.396C1576.22 452.227 1573.17 451.143 1569.06 451.143C1563.25 451.143 1559.17 452.785 1556.81 456.071C1554.45 459.357 1553.27 464.126 1553.27 470.379V497.846H1545.32V445.4H1551.74L1552.93 452.961H1553.36C1554.48 451.111 1555.9 449.563 1557.62 448.319C1559.35 447.043 1561.28 446.086 1563.41 445.448C1565.55 444.778 1567.8 444.443 1570.16 444.443ZM1653.63 445.4V497.846H1647.12L1645.98 490.477H1645.54C1644.46 492.295 1643.06 493.826 1641.33 495.07C1639.61 496.314 1637.67 497.24 1635.5 497.846C1633.36 498.484 1631.08 498.803 1628.65 498.803C1624.51 498.803 1621.03 498.133 1618.22 496.793C1615.41 495.453 1613.29 493.38 1611.86 490.572C1610.45 487.765 1609.75 484.16 1609.75 479.758V445.4H1617.79V479.184C1617.79 483.554 1618.78 486.824 1620.76 488.993C1622.74 491.131 1625.75 492.199 1629.8 492.199C1633.69 492.199 1636.79 491.465 1639.09 489.998C1641.41 488.531 1643.09 486.377 1644.11 483.538C1645.13 480.667 1645.64 477.158 1645.64 473.011V445.4H1653.63ZM1732.27 444.443C1738.05 444.443 1742.4 445.959 1745.33 448.989C1748.27 451.988 1749.74 456.821 1749.74 463.488V497.846H1741.89V463.871C1741.89 459.628 1740.96 456.454 1739.11 454.349C1737.3 452.211 1734.58 451.143 1730.98 451.143C1725.91 451.143 1722.22 452.61 1719.93 455.545C1717.63 458.48 1716.48 462.802 1716.48 468.513V497.846H1708.58V463.871C1708.58 461.032 1708.17 458.671 1707.34 456.789C1706.54 454.907 1705.33 453.503 1703.7 452.578C1702.11 451.621 1700.08 451.143 1697.63 451.143C1694.15 451.143 1691.36 451.86 1689.25 453.296C1687.15 454.731 1685.62 456.869 1684.66 459.708C1683.73 462.515 1683.27 465.977 1683.27 470.092V497.846H1675.33V445.4H1681.74L1682.94 452.817H1683.37C1684.42 450.999 1685.74 449.468 1687.34 448.224C1688.93 446.979 1690.72 446.038 1692.7 445.4C1694.68 444.762 1696.78 444.443 1699.01 444.443C1703 444.443 1706.34 445.193 1709.02 446.692C1711.73 448.16 1713.69 450.409 1714.9 453.439H1715.33C1717.05 450.409 1719.41 448.16 1722.41 446.692C1725.41 445.193 1728.7 444.443 1732.27 444.443ZM1791.15 444.443C1795.61 444.443 1799.44 445.432 1802.63 447.41C1805.82 449.388 1808.26 452.163 1809.95 455.736C1811.64 459.277 1812.49 463.424 1812.49 468.178V473.106H1776.27C1776.36 479.263 1777.89 483.953 1780.86 487.175C1783.83 490.397 1788.01 492.008 1793.4 492.008C1796.71 492.008 1799.65 491.705 1802.2 491.099C1804.75 490.493 1807.4 489.599 1810.14 488.419V495.405C1807.5 496.586 1804.87 497.447 1802.25 497.989C1799.67 498.532 1796.6 498.803 1793.06 498.803C1788.02 498.803 1783.62 497.782 1779.85 495.74C1776.12 493.667 1773.22 490.636 1771.15 486.648C1769.07 482.661 1768.04 477.78 1768.04 472.006C1768.04 466.359 1768.98 461.479 1770.86 457.363C1772.77 453.216 1775.45 450.026 1778.9 447.793C1782.37 445.56 1786.46 444.443 1791.15 444.443ZM1791.05 450.951C1786.81 450.951 1783.43 452.339 1780.91 455.114C1778.39 457.89 1776.89 461.766 1776.41 466.742H1804.16C1804.13 463.616 1803.64 460.872 1802.68 458.512C1801.75 456.119 1800.34 454.269 1798.42 452.961C1796.51 451.621 1794.05 450.951 1791.05 450.951ZM1804.31 422.767V423.724C1803.67 424.649 1802.79 425.765 1801.68 427.073C1800.59 428.349 1799.38 429.705 1798.04 431.141C1796.7 432.544 1795.34 433.884 1793.97 435.16C1792.63 436.436 1791.39 437.537 1790.24 438.462H1784.93V437.313C1785.95 436.101 1787.06 434.65 1788.28 432.959C1789.49 431.236 1790.67 429.482 1791.82 427.695C1792.97 425.877 1793.92 424.234 1794.69 422.767H1804.31ZM1854.71 444.443C1855.77 444.443 1856.87 444.507 1858.02 444.635C1859.16 444.73 1860.18 444.874 1861.08 445.065L1860.07 452.435C1859.21 452.211 1858.25 452.036 1857.2 451.908C1856.15 451.781 1855.16 451.717 1854.24 451.717C1852.13 451.717 1850.14 452.147 1848.25 453.009C1846.4 453.838 1844.78 455.05 1843.37 456.646C1841.97 458.209 1840.87 460.107 1840.07 462.34C1839.27 464.541 1838.87 466.997 1838.87 469.709V497.846H1830.88V445.4H1837.49L1838.35 455.066H1838.68C1839.77 453.12 1841.08 451.35 1842.61 449.755C1844.14 448.128 1845.91 446.836 1847.92 445.879C1849.96 444.922 1852.23 444.443 1854.71 444.443ZM1883.83 445.4V497.846H1875.88V445.4H1883.83ZM1879.95 425.781C1881.26 425.781 1882.38 426.212 1883.3 427.073C1884.26 427.903 1884.74 429.211 1884.74 430.997C1884.74 432.752 1884.26 434.06 1883.3 434.921C1882.38 435.782 1881.26 436.213 1879.95 436.213C1878.58 436.213 1877.43 435.782 1876.51 434.921C1875.61 434.06 1875.17 432.752 1875.17 430.997C1875.17 429.211 1875.61 427.903 1876.51 427.073C1877.43 426.212 1878.58 425.781 1879.95 425.781ZM1940.74 521.293V498.803C1940.74 497.559 1940.77 496.123 1940.84 494.496C1940.9 492.869 1941.01 491.465 1941.17 490.285H1940.65C1939.18 492.71 1937.09 494.735 1934.38 496.362C1931.67 497.989 1928.17 498.803 1923.9 498.803C1917.49 498.803 1912.33 496.538 1908.44 492.008C1904.55 487.478 1902.6 480.715 1902.6 471.719C1902.6 465.817 1903.5 460.84 1905.28 456.789C1907.07 452.738 1909.59 449.675 1912.84 447.602C1916.13 445.496 1919.96 444.443 1924.33 444.443C1928.51 444.443 1931.92 445.273 1934.57 446.932C1937.22 448.559 1939.29 450.552 1940.79 452.913H1941.17L1942.37 445.4H1948.68V521.293H1940.74ZM1925.38 492.199C1929.08 492.199 1932.05 491.513 1934.28 490.142C1936.51 488.738 1938.14 486.632 1939.16 483.825C1940.21 481.018 1940.77 477.525 1940.84 473.346V471.671C1940.84 464.908 1939.69 459.788 1937.39 456.311C1935.09 452.801 1931.09 451.047 1925.38 451.047C1920.47 451.047 1916.82 452.929 1914.42 456.693C1912.03 460.426 1910.83 465.498 1910.83 471.91C1910.83 478.322 1912.03 483.315 1914.42 486.888C1916.82 490.429 1920.47 492.199 1925.38 492.199ZM2013.78 445.4V497.846H2007.27L2006.13 490.477H2005.69C2004.61 492.295 2003.21 493.826 2001.48 495.07C1999.76 496.314 1997.82 497.24 1995.65 497.846C1993.51 498.484 1991.23 498.803 1988.8 498.803C1984.66 498.803 1981.18 498.133 1978.37 496.793C1975.56 495.453 1973.44 493.38 1972.01 490.572C1970.6 487.765 1969.9 484.16 1969.9 479.758V445.4H1977.94V479.184C1977.94 483.554 1978.93 486.824 1980.91 488.993C1982.89 491.131 1985.9 492.199 1989.95 492.199C1993.84 492.199 1996.94 491.465 1999.23 489.998C2001.56 488.531 2003.24 486.377 2004.26 483.538C2005.28 480.667 2005.79 477.158 2005.79 473.011V445.4H2013.78ZM2055.67 444.443C2060.14 444.443 2063.97 445.432 2067.16 447.41C2070.35 449.388 2072.79 452.163 2074.48 455.736C2076.17 459.277 2077.01 463.424 2077.01 468.178V473.106H2040.79C2040.89 479.263 2042.42 483.953 2045.38 487.175C2048.35 490.397 2052.53 492.008 2057.92 492.008C2061.24 492.008 2064.17 491.705 2066.72 491.099C2069.28 490.493 2071.92 489.599 2074.67 488.419V495.405C2072.02 496.586 2069.39 497.447 2066.77 497.989C2064.19 498.532 2061.13 498.803 2057.59 498.803C2052.54 498.803 2048.14 497.782 2044.38 495.74C2040.65 493.667 2037.74 490.636 2035.67 486.648C2033.6 482.661 2032.56 477.78 2032.56 472.006C2032.56 466.359 2033.5 461.479 2035.38 457.363C2037.3 453.216 2039.98 450.026 2043.42 447.793C2046.9 445.56 2050.98 444.443 2055.67 444.443ZM2055.58 450.951C2051.33 450.951 2047.95 452.339 2045.43 455.114C2042.91 457.89 2041.41 461.766 2040.93 466.742H2068.69C2068.65 463.616 2068.16 460.872 2067.2 458.512C2066.28 456.119 2064.86 454.269 2062.94 452.961C2061.03 451.621 2058.57 450.951 2055.58 450.951ZM2129.33 483.49C2129.33 486.84 2128.49 489.663 2126.8 491.96C2125.14 494.225 2122.75 495.932 2119.62 497.08C2116.53 498.229 2112.83 498.803 2108.52 498.803C2104.85 498.803 2101.68 498.516 2099 497.941C2096.32 497.367 2093.97 496.554 2091.96 495.501V488.18C2094.1 489.232 2096.65 490.189 2099.62 491.051C2102.58 491.912 2105.62 492.343 2108.71 492.343C2113.24 492.343 2116.53 491.609 2118.57 490.142C2120.61 488.674 2121.63 486.68 2121.63 484.16C2121.63 482.725 2121.22 481.465 2120.39 480.38C2119.59 479.263 2118.23 478.195 2116.32 477.174C2114.4 476.121 2111.76 474.973 2108.37 473.729C2105.03 472.452 2102.12 471.192 2099.67 469.948C2097.24 468.672 2095.36 467.125 2094.02 465.307C2092.71 463.488 2092.06 461.128 2092.06 458.225C2092.06 453.79 2093.84 450.393 2097.42 448.032C2101.02 445.64 2105.74 444.443 2111.58 444.443C2114.74 444.443 2117.69 444.762 2120.43 445.4C2123.21 446.007 2125.79 446.836 2128.19 447.889L2125.51 454.253C2123.34 453.328 2121.02 452.546 2118.57 451.908C2116.11 451.27 2113.61 450.951 2111.05 450.951C2107.39 450.951 2104.56 451.557 2102.58 452.77C2100.64 453.982 2099.67 455.641 2099.67 457.746C2099.67 459.373 2100.11 460.713 2101.01 461.766C2101.93 462.818 2103.4 463.807 2105.41 464.732C2107.42 465.658 2110.07 466.742 2113.35 467.986C2116.64 469.199 2119.48 470.459 2121.87 471.767C2124.26 473.043 2126.1 474.606 2127.37 476.456C2128.68 478.274 2129.33 480.619 2129.33 483.49Z" fill="black"/>
</svg>
